<?xml version="1.0" encoding="utf-8"?>
<!-- Generator: Adobe Illustrator 17.0.0, SVG Export Plug-In . SVG Version: 6.00 Build 0)  -->
<!DOCTYPE svg PUBLIC "-//W3C//DTD SVG 1.1//EN" "http://www.w3.org/Graphics/SVG/1.1/DTD/svg11.dtd">
<svg version="1.1" id="Laag_1" xmlns="http://www.w3.org/2000/svg" xmlns:xlink="http://www.w3.org/1999/xlink" x="0px" y="0px"
	 width="35px" height="35px" viewBox="0 0 35 35" enable-background="new 0 0 35 35" xml:space="preserve">
<circle fill="#FFFFFF" cx="17.5" cy="17.388" r="16.619"/>
<path fill="#CCCCCC" d="M17.5,2C26.047,2,33,8.953,33,17.5S26.047,33,17.5,33S2,26.047,2,17.5S8.953,2,17.5,2 M17.5,0
	C7.835,0,0,7.835,0,17.5S7.835,35,17.5,35S35,27.165,35,17.5S27.165,0,17.5,0L17.5,0z"/>
<path fill="#EBEBEB" d="M17.5,8.5c-4.971,0-9,4.029-9,9s4.029,9,9,9s9-4.029,9-9S22.471,8.5,17.5,8.5L17.5,8.5z"/>
</svg>
