<?xml version="1.0" encoding="UTF-8" standalone="no"?>
<svg width="22px" height="22px" viewBox="0 0 22 22" version="1.1" xmlns="http://www.w3.org/2000/svg" xmlns:xlink="http://www.w3.org/1999/xlink" xmlns:sketch="http://www.bohemiancoding.com/sketch/ns">
    <!-- Generator: Sketch 3.0.4 (8054) - http://www.bohemiancoding.com/sketch -->
    <title>checkbox-on</title>
    <desc>Created with Sketch.</desc>
    <defs></defs>
    <g id="Form-API" stroke="none" stroke-width="1" fill="none" fill-rule="evenodd" sketch:type="MSPage">
        <g id="Form-elements" sketch:type="MSArtboardGroup" transform="translate(-523.000000, -352.000000)">
            <g id="Checkboxes" sketch:type="MSLayerGroup" transform="translate(523.000000, 233.000000)">
                <g id="checkbox-on" transform="translate(0.000000, 119.000000)" sketch:type="MSShapeGroup">
                    <rect id="Rectangle-8" fill="#4BB2FA" x="0.297851562" y="0.297851562" width="21.2050781" height="21.2050781" rx="3"></rect>
                    <g id="icon-affirmative" transform="translate(5.637110, 6.399861)" fill="#FFFFFF">
                        <path d="M12.9155087,2.0136411 L11.0085084,0.106640828 C10.9028012,0.0009336456 10.7212839,0.0009336456 10.6145089,0.106640828 L4.8176979,5.91840033 L2.29033528,3.37608922 C2.1846281,3.27038204 2.00311072,3.27038204 1.89633579,3.37608922 L-0.0106644866,5.28308949 C-0.116371669,5.38879668 -0.116371669,5.57031406 -0.0106644866,5.67708899 L4.62123203,10.3089855 C4.68209374,10.3548987 4.7418877,10.3847957 4.8176979,10.3847957 C4.8935081,10.3847957 4.95436982,10.3548987 5.01416378,10.3089855 L12.9155087,2.4076406 C13.0212159,2.30193341 13.0212159,2.12041603 12.9155087,2.0136411 L12.9155087,2.0136411 Z" id="Shape"></path>
                    </g>
                </g>
            </g>
        </g>
    </g>
</svg>