<?xml version="1.0" encoding="UTF-8" standalone="no"?>
<svg width="20px" height="20px" viewBox="0 0 20 20" version="1.1" xmlns="http://www.w3.org/2000/svg" xmlns:xlink="http://www.w3.org/1999/xlink" xmlns:sketch="http://www.bohemiancoding.com/sketch/ns">
    <!-- Generator: Sketch 3.0.4 (8054) - http://www.bohemiancoding.com/sketch -->
    <title>Error icon</title>
    <desc>Created with Sketch.</desc>
    <defs></defs>
    <g id="Form-API" stroke="none" stroke-width="1" fill="none" fill-rule="evenodd" sketch:type="MSPage">
        <g id="Form-elements" sketch:type="MSArtboardGroup" transform="translate(-258.000000, -782.000000)">
            <g id="Input-Fields" sketch:type="MSLayerGroup" transform="translate(39.000000, 575.000000)">
                <g id="States" transform="translate(0.000000, 59.000000)" sketch:type="MSShapeGroup">
                    <g id="Error" transform="translate(0.000000, 110.000000)">
                        <g id="Input-text-error">
                            <g id="Error-icon" transform="translate(219.000000, 38.000000)">
                                <path d="M8.26455128,1.47089745 C9.25208076,-0.504161518 10.8564126,-0.497701131 11.8407119,1.47089745 L19.3171829,16.4238394 C20.3047123,18.3988984 19.3129117,20 17.0962911,20 L3.0030964,20 L2.9916129,20 C0.78710597,20 -0.196218986,18.392438 0.788080302,16.4238394 L8.26455128,1.47089745 Z" id="Triangle-1" fill="#FF6C6C"></path>
                                <rect id="Rectangle-24" fill="#FFFFFF" x="9" y="7" width="2" height="7"></rect>
                                <path d="M10,17 C10.5522847,17 11,16.5522847 11,16 C11,15.4477153 10.5522847,15 10,15 C9.44771525,15 9,15.4477153 9,16 C9,16.5522847 9.44771525,17 10,17 Z" id="Oval-1" fill="#FFFFFF"></path>
                            </g>
                        </g>
                    </g>
                </g>
            </g>
        </g>
    </g>
</svg>